<?xml version="1.0" standalone="no"?>
<!DOCTYPE svg PUBLIC "-//W3C//DTD SVG 20010904//EN"
 "http://www.w3.org/TR/2001/REC-SVG-20010904/DTD/svg10.dtd">
<svg version="1.0" xmlns="http://www.w3.org/2000/svg"
 width="1000.000000pt" height="1080.000000pt" viewBox="0 0 1000.000000 1080.000000"
 preserveAspectRatio="xMidYMid meet">

<g transform="translate(0.000000,1080.000000) scale(0.100000,-0.100000)"
fill="#000000" stroke="none">
<path d="M4960 6623 c-134 -14 -337 -68 -375 -99 -20 -16 -20 -16 0 -9 11 3
34 9 50 11 21 4 13 -3 -30 -24 -138 -67 -256 -185 -288 -290 -35 -111 -30
-131 15 -58 14 25 36 50 49 56 l22 12 -23 -32 c-33 -47 -31 -102 8 -181 17
-35 29 -52 26 -36 -8 34 1 71 22 92 15 15 18 12 41 -39 l25 -54 40 79 c40 81
59 94 97 70 13 -8 13 -12 1 -27 -13 -15 -11 -16 28 -12 l42 4 -6 -32 c-3 -18
0 -42 6 -55 l12 -22 13 29 c7 17 24 38 39 47 29 19 33 12 11 -17 -28 -36 -12
-98 34 -140 21 -19 21 -19 21 13 0 62 55 137 129 175 32 17 214 85 258 98 45
12 109 -6 129 -38 23 -34 14 -111 -25 -208 -34 -84 -46 -151 -57 -298 l-7 -98
46 0 c48 0 57 9 57 57 0 47 31 93 84 124 44 26 58 29 103 25 46 -4 55 -2 79
22 93 94 148 239 113 304 -8 16 -8 19 1 13 17 -10 40 -69 40 -102 l1 -28 17
30 c12 21 17 53 17 110 0 66 -5 90 -27 137 -28 60 -102 148 -124 148 -26 0
-14 18 19 30 18 7 26 14 19 17 -24 9 -107 -18 -143 -47 l-36 -29 -19 61 c-23
77 -59 127 -115 157 l-44 24 48 -51 c60 -65 63 -98 3 -37 -99 99 -250 139
-446 118z m-77 -174 c-6 -6 -25 -12 -42 -13 -38 -3 -27 11 14 17 17 2 32 5 35
6 2 0 -1 -4 -7 -10z m-98 -19 c-27 -12 -43 -12 -25 0 8 5 22 9 30 9 10 0 8 -3
-5 -9z m-91 -39 c-10 -10 -21 -16 -24 -14 -3 3 4 11 14 19 28 20 33 17 10 -5z
m-54 -36 c-7 -9 -15 -13 -19 -10 -3 3 1 10 9 15 21 14 24 12 10 -5z m80 -7 c0
-6 -6 -5 -15 2 -8 7 -15 14 -15 16 0 2 7 1 15 -2 8 -4 15 -11 15 -16z m-23 -8
c14 -11 23 -20 20 -20 -14 0 -57 24 -57 32 0 13 10 10 37 -12z m123 -15 c14
-19 14 -19 -2 -6 -10 7 -18 18 -18 24 0 6 1 8 3 6 1 -2 9 -13 17 -24z m-205
-32 c-3 -9 0 -20 7 -25 8 -5 9 -8 2 -8 -6 0 -17 7 -24 15 -9 10 -9 15 -1 15 6
0 11 7 11 16 0 8 -4 12 -10 9 -6 -4 -7 1 -3 11 6 15 7 15 15 -1 5 -9 7 -23 3
-32z m28 32 c-3 -9 -8 -14 -10 -11 -3 3 -2 9 2 15 9 16 15 13 8 -4z m272 -39
c28 -8 41 -14 30 -14 -21 0 -107 25 -90 27 6 0 33 -6 60 -13z m5 -26 c21 -7
22 -8 5 -9 -17 -1 -17 -3 -5 -11 8 -5 26 -10 39 -10 13 0 22 -3 18 -6 -12 -13
-77 7 -77 23 0 8 -6 13 -13 10 -8 -3 -20 -1 -28 4 -18 11 25 11 61 -1z m90 0
c13 -8 13 -10 -2 -10 -9 0 -20 5 -23 10 -8 13 5 13 25 0z m97 -16 c-3 -3 -12
-4 -19 -1 -8 3 -5 6 6 6 11 1 17 -2 13 -5z m76 -11 c-7 -2 -19 -2 -25 0 -7 3
-2 5 12 5 14 0 19 -2 13 -5z m-366 -9 c-3 -3 -12 -4 -19 -1 -8 3 -5 6 6 6 11
1 17 -2 13 -5z m63 -4 c0 -5 -5 -10 -11 -10 -5 0 -7 5 -4 10 3 6 8 10 11 10 2
0 4 -4 4 -10z m265 0 c3 -6 -1 -7 -9 -4 -18 7 -21 14 -7 14 6 0 13 -4 16 -10z
m122 -1 c-14 -8 -22 -8 -30 0 -8 8 -3 11 19 11 25 -1 27 -2 11 -11z m-494 -6
c-7 -2 -19 -2 -25 0 -7 3 -2 5 12 5 14 0 19 -2 13 -5z m447 -3 c11 -8 7 -9
-15 -4 -23 4 -26 3 -15 -5 12 -8 7 -11 -20 -11 l-35 0 25 14 c31 17 41 18 60
6z m-355 -10 c14 -7 8 -8 -20 -3 -22 3 -42 7 -44 9 -9 8 45 2 64 -6z m92 4
c-3 -3 -12 -4 -19 -1 -8 3 -5 6 6 6 11 1 17 -2 13 -5z m156 -1 c-13 -2 -35 -2
-50 0 -16 2 -5 4 22 4 28 0 40 -2 28 -4z m35 -28 c3 -3 -48 -2 -114 1 -65 3
-121 8 -124 11 -3 3 48 2 114 -1 65 -3 121 -8 124 -11z"/>
<path d="M5021 5891 c-31 -20 -1 -38 104 -60 59 -12 110 -19 113 -16 3 3 -6
17 -20 31 -37 37 -164 66 -197 45z"/>
<path d="M4621 5861 c-61 -21 -114 -67 -93 -80 19 -12 217 60 217 79 0 22 -61
23 -124 1z"/>
<path d="M5052 5737 c-34 -40 -18 -107 28 -122 51 -16 84 80 42 118 -22 20
-55 22 -70 4z"/>
<path d="M4607 5712 c-35 -38 -8 -122 38 -122 25 0 55 38 55 70 0 34 -30 70
-58 70 -11 0 -26 -8 -35 -18z"/>
<path d="M2015 5456 c-41 -18 -83 -69 -90 -110 -4 -18 5 -121 19 -227 14 -107
53 -398 86 -647 64 -488 66 -496 130 -539 33 -23 36 -23 396 -23 l364 0 0
-170 0 -170 -164 0 c-191 0 -196 -2 -196 -81 l0 -49 525 0 525 0 0 49 c0 77
-8 81 -171 81 l-139 0 0 172 0 171 398 -6 c376 -6 399 -5 439 13 26 11 52 34
69 59 26 40 27 45 21 129 -4 48 -18 166 -32 262 -37 253 -50 349 -95 688 -23
173 -46 315 -55 331 -8 16 -29 40 -47 53 l-33 23 -960 2 c-783 2 -966 0 -990
-11z"/>
<path d="M5268 4944 c-3 -34 -8 -40 -53 -63 -43 -23 -62 -26 -146 -26 -89 0
-100 2 -123 24 -14 13 -26 36 -28 52 l-3 29 -110 -38 c-60 -21 -139 -53 -175
-73 -78 -43 -83 -58 -74 -204 7 -113 24 -219 83 -520 23 -115 50 -252 60 -302
l18 -93 -504 0 -503 0 -10 -26 c-12 -31 -13 -94 -2 -112 8 -12 241 -14 1700
-12 10 0 12 18 10 73 l-3 72 -249 3 -248 2 43 35 c24 19 75 51 113 71 l69 37
96 -7 c53 -3 112 -9 131 -12 34 -7 35 -6 17 13 -17 20 -16 21 75 53 97 35 247
107 286 138 l23 18 -28 182 -29 182 -82 60 c-111 82 -142 125 -142 200 0 67
12 107 53 173 19 32 34 46 44 43 8 -3 11 -1 8 4 -3 6 4 10 17 10 18 1 20 3 8
9 -18 10 -142 28 -257 37 l-82 7 -3 -39z"/>
<path d="M5770 3700 c-11 -7 -7 -10 18 -10 17 0 32 5 32 10 0 13 -30 13 -50 0z"/>
<path d="M1533 2925 c0 -27 2 -38 4 -22 2 15 2 37 0 50 -2 12 -4 0 -4 -28z"/>
<path d="M7708 2943 c0 -16 0 -38 1 -50 1 -13 -3 -23 -9 -23 -5 0 -10 5 -10
10 0 6 -10 10 -22 10 l-23 0 25 -21 c14 -11 19 -18 13 -14 -7 3 -21 1 -30 -4
-16 -9 -14 -10 9 -11 40 0 58 24 58 81 0 52 -9 68 -12 22z"/>
<path d="M1552 2925 c0 -16 2 -22 5 -12 2 9 2 23 0 30 -3 6 -5 -1 -5 -18z"/>
<path d="M1572 2913 c2 -19 -1 -27 -10 -25 -8 1 -11 -2 -7 -8 3 -5 1 -10 -6
-10 -8 0 -8 -4 1 -15 11 -13 361 -15 3039 -15 2645 1 3028 2 3045 15 11 8 14
15 7 15 -7 0 -10 4 -6 9 3 5 -5 12 -17 14 -13 2 -2 5 25 6 26 0 47 5 47 11 0
6 -1079 9 -3043 7 l-3042 -2 3000 -5 3000 -5 -3012 -3 c-2004 -1 -3013 1
-3013 8 0 6 1 11 3 12 1 2 1361 5 3022 8 l3020 5 -3028 3 -3028 2 3 -27z
m6034 -38 c14 -13 -314 -15 -2948 -14 -1630 0 -2989 4 -3021 8 -35 4 -61 3
-64 -2 -3 -6 -1 -7 5 -3 6 3 13 2 17 -4 3 -5 0 -10 -8 -10 -21 0 -28 12 -16
27 10 11 515 13 3016 13 2657 0 3006 -2 3019 -15z"/>
<path d="M7645 2930 c3 -5 12 -10 20 -10 8 0 17 5 20 10 4 6 -5 10 -20 10 -15
0 -24 -4 -20 -10z"/>
<path d="M0 400 l0 -400 5000 0 5000 0 0 400 0 400 -5000 0 -5000 0 0 -400z
m2192 123 c23 -20 23 -57 1 -74 -15 -11 -16 -11 -5 1 27 31 11 72 -33 83 -19
4 -19 5 -1 6 11 0 28 -6 38 -16z m-69 -8 c-3 -9 -8 -14 -10 -11 -3 3 -2 9 2
15 9 16 15 13 8 -4z m-1760 -114 c22 -61 43 -108 47 -104 4 4 24 56 45 116 21
59 42 107 47 107 11 0 9 -5 -42 -149 -23 -64 -44 -107 -53 -109 -15 -3 -17 0
-67 143 -15 44 -31 88 -36 99 -5 13 -3 17 6 14 8 -2 32 -55 53 -117z m517 89
c0 -23 4 -30 20 -30 11 0 20 -4 20 -10 0 -5 -10 -10 -21 -10 -20 0 -21 -4 -17
-71 3 -55 8 -74 23 -85 23 -17 14 -29 -13 -15 -11 6 -22 25 -26 42 -10 51 -7
209 4 209 6 0 10 -13 10 -30z m515 16 c25 -11 33 -19 29 -30 -7 -19 -5 -19
-40 -1 -36 18 -55 19 -78 2 -28 -21 -9 -45 49 -62 87 -25 108 -74 54 -127 -29
-29 -33 -30 -90 -25 -68 6 -72 8 -64 29 5 13 12 14 40 5 50 -15 100 1 100 33
0 16 -8 28 -25 36 -87 40 -105 51 -108 67 -14 70 53 106 133 73z m105 -16 c0
-25 4 -30 25 -30 16 0 25 -6 25 -15 0 -9 -9 -15 -25 -15 -24 0 -25 -3 -25 -60
0 -55 2 -62 25 -72 14 -6 25 -15 25 -20 0 -18 -31 -20 -55 -4 -24 16 -25 20
-25 131 0 96 3 115 15 115 10 0 15 -10 15 -30z m482 -32 l3 -62 36 32 c20 18
45 32 55 32 14 0 9 -9 -21 -40 l-39 -40 42 -60 c40 -57 41 -60 20 -60 -16 0
-32 14 -53 45 -16 25 -33 45 -37 45 -5 0 -8 -20 -8 -45 0 -38 -3 -45 -20 -45
-19 0 -20 7 -20 130 0 122 1 130 20 130 16 0 19 -8 22 -62z m193 30 c1 -20 -2
-24 -11 -17 -8 7 -14 6 -17 -3 -3 -7 -6 2 -6 20 -1 27 3 33 17 30 11 -2 17
-13 17 -30z m-44 -35 c13 -16 12 -17 -3 -4 -17 13 -22 21 -14 21 2 0 10 -8 17
-17z m-1502 -19 c12 -15 21 -40 21 -55 0 -29 0 -29 -65 -29 -72 0 -83 -12 -44
-51 17 -17 30 -20 65 -16 43 4 59 -5 28 -17 -45 -17 -106 3 -123 41 -45 98 56
206 118 127z m191 16 c17 -11 10 -13 -40 -10 -47 2 -75 -28 -75 -80 0 -55 26
-80 82 -80 27 0 42 -4 38 -10 -9 -15 -78 -12 -102 5 -50 35 -50 135 0 170 24
17 74 20 97 5z m265 -13 c20 -16 28 -35 32 -69 5 -42 3 -50 -25 -78 -41 -41
-83 -41 -124 0 -28 28 -30 36 -25 78 9 82 84 119 142 69z m85 7 c0 -14 2 -14
22 0 24 17 38 20 38 9 0 -5 -14 -16 -30 -25 -29 -17 -30 -19 -30 -93 0 -43 -4
-75 -10 -75 -6 0 -10 40 -10 100 0 60 4 100 10 100 6 0 10 -7 10 -16z m537 1
c30 -21 44 -75 32 -120 -25 -88 -143 -88 -168 0 -20 72 20 135 84 135 17 0 40
-7 52 -15z m198 -5 c0 -10 -8 -14 -27 -12 -58 6 -91 -42 -67 -100 11 -28 36
-40 74 -35 12 1 20 -4 20 -13 0 -19 -48 -25 -85 -10 -63 26 -68 148 -6 179 31
15 91 9 91 -9z m5394 -83 c8 -26 17 -47 21 -47 4 0 13 21 21 47 8 25 20 48 27
51 8 2 4 -19 -12 -63 -36 -99 -36 -99 -72 0 -16 44 -20 65 -12 63 7 -3 19 -26
27 -51z m638 38 c2 -6 -9 -11 -23 -10 -39 0 -42 -23 -5 -36 34 -12 49 -43 31
-64 -13 -16 -38 -19 -64 -9 -27 10 -18 22 17 20 38 -1 43 19 8 37 -36 18 -48
42 -31 62 14 17 61 17 67 0z m333 -20 c0 -35 16 -47 26 -20 4 8 13 15 22 15
13 0 13 -3 -2 -19 -16 -18 -16 -21 -1 -50 19 -38 8 -40 -22 -3 l-22 27 -1 -27
c0 -16 -4 -28 -10 -28 -6 0 -10 30 -10 70 0 40 4 70 10 70 6 0 10 -16 10 -35z
m580 32 c0 -4 -34 -104 -45 -136 -3 -8 -8 -11 -11 -8 -8 7 38 147 48 147 4 0
8 -2 8 -3z m70 -57 c0 -33 4 -60 10 -60 6 0 10 -4 10 -10 0 -5 -13 -10 -30
-10 -16 0 -30 5 -30 10 0 6 5 10 10 10 6 0 10 20 10 45 0 38 -2 43 -17 38 -16
-6 -16 -4 1 15 29 34 36 27 36 -38z m120 41 c-5 -11 -15 -23 -20 -26 -6 -4 -1
-14 12 -25 20 -15 21 -21 10 -44 -11 -26 -34 -32 -66 -20 -28 11 -17 24 14 18
22 -5 31 -2 36 11 6 16 -3 28 -31 39 -6 2 -5 9 3 17 18 19 15 29 -8 29 -11 0
-20 5 -20 10 0 6 18 10 40 10 37 0 40 -2 30 -19z m108 7 c21 -21 13 -45 -25
-77 l-38 -30 43 -1 c23 0 42 -4 42 -10 0 -5 -22 -10 -50 -10 -62 0 -65 15 -14
63 42 40 39 62 -8 53 -26 -5 -29 -4 -18 9 15 18 51 20 68 3z m112 2 c0 -5 -11
-10 -25 -10 -32 0 -32 -16 -1 -24 27 -7 41 -35 31 -65 -7 -23 -37 -35 -65 -26
-31 10 -24 23 13 21 28 -1 32 2 32 24 0 21 -4 25 -30 24 -29 -1 -30 0 -27 32
4 31 7 34 38 34 19 0 34 -4 34 -10z m120 0 c0 -5 -11 -10 -25 -10 -14 0 -29
-8 -36 -21 -9 -18 -8 -20 9 -15 12 4 28 -1 43 -13 21 -16 22 -22 11 -45 -22
-48 -92 -22 -92 34 0 37 35 80 66 80 13 0 24 -4 24 -10z m110 5 c0 -6 -60
-127 -66 -134 -2 -2 -7 -2 -10 1 -3 3 6 29 20 57 14 28 26 53 26 56 0 3 -13 5
-30 5 -16 0 -30 5 -30 10 0 6 20 10 45 10 25 0 45 -2 45 -5z m90 -5 c0 -5 -11
-10 -25 -10 -32 0 -32 -16 -1 -24 27 -7 41 -35 31 -65 -7 -23 -37 -35 -65 -26
-31 10 -24 23 13 21 28 -1 32 2 32 24 0 21 -4 25 -30 24 -29 -1 -30 0 -27 32
4 31 7 34 38 34 19 0 34 -4 34 -10z m108 2 c22 -14 27 -78 8 -107 -32 -49 -86
-21 -86 45 0 56 39 86 78 62z m-2048 -37 c9 -10 9 -15 1 -15 -15 0 -14 -57 2
-63 6 -2 9 -7 6 -11 -15 -17 -37 8 -41 47 -7 58 5 74 32 42z m360 0 c9 -10 9
-15 1 -15 -15 0 -14 -57 2 -63 6 -2 9 -7 6 -11 -15 -17 -37 8 -41 47 -7 58 5
74 32 42z m-532 -7 c23 -23 13 -38 -24 -38 -46 0 -41 -23 7 -30 27 -4 30 -7
16 -13 -28 -11 -44 -9 -61 9 -32 31 -14 84 29 84 12 0 26 -5 33 -12z m117 3
c3 -5 -9 -11 -27 -13 -28 -2 -33 -7 -33 -28 0 -21 5 -26 33 -28 36 -4 34 -22
-3 -22 -28 0 -55 24 -55 50 0 37 67 69 85 41z m169 -7 c21 -20 20 -43 -1 -66
-20 -22 -46 -23 -67 -2 -31 30 -9 84 34 84 10 0 26 -7 34 -16z m86 6 c0 -4 -7
-10 -15 -14 -9 -3 -15 -19 -15 -41 0 -19 -4 -35 -10 -35 -5 0 -10 22 -10 49 0
45 2 49 25 49 14 0 25 -4 25 -8z m274 -6 c21 -20 20 -43 -1 -66 -20 -22 -46
-23 -67 -2 -31 30 -9 84 34 84 10 0 26 -7 34 -16z m121 7 c3 -5 -9 -11 -27
-13 -28 -2 -33 -7 -33 -28 0 -21 5 -26 33 -28 36 -4 34 -22 -3 -22 -28 0 -55
24 -55 50 0 37 67 69 85 41z m242 2 c14 -6 10 -9 -17 -13 -29 -4 -35 -9 -35
-30 0 -21 5 -26 33 -28 36 -4 34 -22 -3 -22 -28 0 -55 24 -55 50 0 22 25 50
45 50 7 0 22 -3 32 -7z m107 -9 c21 -20 20 -43 -1 -66 -20 -22 -46 -23 -67 -2
-31 30 -9 84 34 84 10 0 26 -7 34 -16z m111 5 c3 -5 14 -3 25 3 28 18 50 -6
50 -53 0 -22 -4 -39 -10 -39 -5 0 -10 18 -10 41 0 33 -3 40 -17 37 -13 -2 -19
-14 -21 -41 -4 -50 -22 -47 -22 4 0 36 -2 40 -22 37 -19 -2 -24 -10 -26 -40
-5 -55 -22 -47 -22 10 l0 48 35 1 c19 1 37 -3 40 -8z m-325 -79 c0 -5 -4 -10
-10 -10 -5 0 -10 5 -10 10 0 6 5 10 10 10 6 0 10 -4 10 -10z"/>
<path d="M2150 500 c0 -5 5 -10 10 -10 6 0 10 5 10 10 0 6 -4 10 -10 10 -5 0
-10 -4 -10 -10z"/>
<path d="M536 418 c-28 -39 -21 -48 39 -48 59 0 67 9 45 51 -15 27 -64 25 -84
-3z"/>
<path d="M986 424 c-50 -50 -21 -144 44 -144 48 0 80 50 66 104 -13 53 -75 75
-110 40z"/>
<path d="M1616 408 c-32 -46 -8 -118 39 -118 28 0 55 34 55 70 0 36 -27 70
-55 70 -13 0 -31 -10 -39 -22z"/>
<path d="M9314 325 c-4 -9 -2 -21 4 -27 16 -16 47 -5 47 17 0 26 -42 34 -51
10z"/>
<path d="M9634 365 c-9 -38 3 -75 26 -75 23 0 35 37 26 75 -4 16 -13 25 -26
25 -13 0 -22 -9 -26 -25z"/>
<path d="M7415 340 c-4 -6 5 -10 19 -10 14 0 26 5 26 10 0 6 -9 10 -19 10 -11
0 -23 -4 -26 -10z"/>
<path d="M7694 336 c-10 -26 4 -48 28 -44 17 2 23 10 23 28 0 18 -6 26 -23 28
-13 2 -25 -3 -28 -12z"/>
<path d="M8054 336 c-10 -26 4 -48 28 -44 17 2 23 10 23 28 0 18 -6 26 -23 28
-13 2 -25 -3 -28 -12z"/>
<path d="M8524 336 c-10 -26 4 -48 28 -44 17 2 23 10 23 28 0 18 -6 26 -23 28
-13 2 -25 -3 -28 -12z"/>
</g>
</svg>
